<svg width="333" height="115" viewBox="0 0 333 115" fill="none" xmlns="http://www.w3.org/2000/svg">
<path d="M261.107 29.776V35.792H308.595V29.776H261.107ZM265.651 46.736V51.728H278.963V46.736H265.651ZM264.243 54.096V59.088H279.027V54.096H264.243ZM290.547 54.096V59.088H305.523V54.096H290.547ZM290.547 46.736V51.728H303.987V46.736H290.547ZM264.051 70.8V76.56H302.387V70.8H264.051ZM261.683 79.76V85.904H302.899V79.76H261.683ZM281.011 32.08V59.792H288.499V32.08H281.011ZM262.579 61.712V67.728H299.187V87.952H306.803V61.712H262.579ZM256.755 38.416V53.072H263.539V44.304H306.163V53.072H313.267V38.416H256.755Z" fill="#FAFCFC"/>
<path d="M261.107 29.776V28.776H260.107V29.776H261.107ZM261.107 35.792H260.107V36.792H261.107V35.792ZM308.595 35.792V36.792H309.595V35.792H308.595ZM308.595 29.776H309.595V28.776H308.595V29.776ZM265.651 46.736V45.736H264.651V46.736H265.651ZM265.651 51.728H264.651V52.728H265.651V51.728ZM278.963 51.728V52.728H279.963V51.728H278.963ZM278.963 46.736H279.963V45.736H278.963V46.736ZM264.243 54.096V53.096H263.243V54.096H264.243ZM264.243 59.088H263.243V60.088H264.243V59.088ZM279.027 59.088V60.088H280.027V59.088H279.027ZM279.027 54.096H280.027V53.096H279.027V54.096ZM290.547 54.096V53.096H289.547V54.096H290.547ZM290.547 59.088H289.547V60.088H290.547V59.088ZM305.523 59.088V60.088H306.523V59.088H305.523ZM305.523 54.096H306.523V53.096H305.523V54.096ZM290.547 46.736V45.736H289.547V46.736H290.547ZM290.547 51.728H289.547V52.728H290.547V51.728ZM303.987 51.728V52.728H304.987V51.728H303.987ZM303.987 46.736H304.987V45.736H303.987V46.736ZM264.051 70.8V69.8H263.051V70.8H264.051ZM264.051 76.56H263.051V77.56H264.051V76.56ZM302.387 76.56V77.56H303.387V76.56H302.387ZM302.387 70.8H303.387V69.8H302.387V70.8ZM261.683 79.76V78.76H260.683V79.76H261.683ZM261.683 85.904H260.683V86.904H261.683V85.904ZM302.899 85.904V86.904H303.899V85.904H302.899ZM302.899 79.76H303.899V78.76H302.899V79.76ZM281.011 32.08V31.08H280.011V32.08H281.011ZM281.011 59.792H280.011V60.792H281.011V59.792ZM288.499 59.792V60.792H289.499V59.792H288.499ZM288.499 32.08H289.499V31.08H288.499V32.08ZM262.579 61.712V60.712H261.579V61.712H262.579ZM262.579 67.728H261.579V68.728H262.579V67.728ZM299.187 67.728H300.187V66.728H299.187V67.728ZM299.187 87.952H298.187V88.952H299.187V87.952ZM306.803 87.952V88.952H307.803V87.952H306.803ZM306.803 61.712H307.803V60.712H306.803V61.712ZM256.755 38.416V37.416H255.755V38.416H256.755ZM256.755 53.072H255.755V54.072H256.755V53.072ZM263.539 53.072V54.072H264.539V53.072H263.539ZM263.539 44.304V43.304H262.539V44.304H263.539ZM306.163 44.304H307.163V43.304H306.163V44.304ZM306.163 53.072H305.163V54.072H306.163V53.072ZM313.267 53.072V54.072H314.267V53.072H313.267ZM313.267 38.416H314.267V37.416H313.267V38.416ZM260.107 29.776V35.792H262.107V29.776H260.107ZM261.107 36.792H308.595V34.792H261.107V36.792ZM309.595 35.792V29.776H307.595V35.792H309.595ZM308.595 28.776H261.107V30.776H308.595V28.776ZM264.651 46.736V51.728H266.651V46.736H264.651ZM265.651 52.728H278.963V50.728H265.651V52.728ZM279.963 51.728V46.736H277.963V51.728H279.963ZM278.963 45.736H265.651V47.736H278.963V45.736ZM263.243 54.096V59.088H265.243V54.096H263.243ZM264.243 60.088H279.027V58.088H264.243V60.088ZM280.027 59.088V54.096H278.027V59.088H280.027ZM279.027 53.096H264.243V55.096H279.027V53.096ZM289.547 54.096V59.088H291.547V54.096H289.547ZM290.547 60.088H305.523V58.088H290.547V60.088ZM306.523 59.088V54.096H304.523V59.088H306.523ZM305.523 53.096H290.547V55.096H305.523V53.096ZM289.547 46.736V51.728H291.547V46.736H289.547ZM290.547 52.728H303.987V50.728H290.547V52.728ZM304.987 51.728V46.736H302.987V51.728H304.987ZM303.987 45.736H290.547V47.736H303.987V45.736ZM263.051 70.8V76.56H265.051V70.8H263.051ZM264.051 77.56H302.387V75.56H264.051V77.56ZM303.387 76.56V70.8H301.387V76.56H303.387ZM302.387 69.8H264.051V71.8H302.387V69.8ZM260.683 79.76V85.904H262.683V79.76H260.683ZM261.683 86.904H302.899V84.904H261.683V86.904ZM303.899 85.904V79.76H301.899V85.904H303.899ZM302.899 78.76H261.683V80.76H302.899V78.76ZM280.011 32.08V59.792H282.011V32.08H280.011ZM281.011 60.792H288.499V58.792H281.011V60.792ZM289.499 59.792V32.08H287.499V59.792H289.499ZM288.499 31.08H281.011V33.08H288.499V31.08ZM261.579 61.712V67.728H263.579V61.712H261.579ZM262.579 68.728H299.187V66.728H262.579V68.728ZM298.187 67.728V87.952H300.187V67.728H298.187ZM299.187 88.952H306.803V86.952H299.187V88.952ZM307.803 87.952V61.712H305.803V87.952H307.803ZM306.803 60.712H262.579V62.712H306.803V60.712ZM255.755 38.416V53.072H257.755V38.416H255.755ZM256.755 54.072H263.539V52.072H256.755V54.072ZM264.539 53.072V44.304H262.539V53.072H264.539ZM263.539 45.304H306.163V43.304H263.539V45.304ZM305.163 44.304V53.072H307.163V44.304H305.163ZM306.163 54.072H313.267V52.072H306.163V54.072ZM314.267 53.072V38.416H312.267V53.072H314.267ZM313.267 37.416H256.755V39.416H313.267V37.416Z" fill="#1F1F1F"/>
<path d="M52.148 34.9157V79.3958H44.852V48.9318L31.284 79.3958H26.228L12.596 48.9318V79.3958H5.3V34.9157H13.172L28.788 69.7958L44.34 34.9157H52.148ZM68.6495 39.4598C67.3268 39.4598 66.2175 39.0118 65.3215 38.1157C64.4255 37.2198 63.9775 36.1104 63.9775 34.7878C63.9775 33.4651 64.4255 32.3557 65.3215 31.4598C66.2175 30.5637 67.3268 30.1157 68.6495 30.1157C69.9295 30.1157 71.0175 30.5637 71.9135 31.4598C72.8095 32.3557 73.2575 33.4651 73.2575 34.7878C73.2575 36.1104 72.8095 37.2198 71.9135 38.1157C71.0175 39.0118 69.9295 39.4598 68.6495 39.4598ZM72.2335 44.1318V79.3958H64.9375V44.1318H72.2335ZM102.805 43.5558C105.578 43.5558 108.053 44.1318 110.229 45.2837C112.447 46.4357 114.175 48.1424 115.413 50.4038C116.65 52.6651 117.269 55.3958 117.269 58.5958V79.3958H110.037V59.6838C110.037 56.5264 109.247 54.1157 107.669 52.4517C106.09 50.7451 103.935 49.8918 101.205 49.8918C98.4738 49.8918 96.2978 50.7451 94.6765 52.4517C93.0978 54.1157 92.3085 56.5264 92.3085 59.6838V79.3958H85.0125V44.1318H92.3085V48.1637C93.5032 46.7131 95.0178 45.5824 96.8525 44.7718C98.7298 43.9611 100.714 43.5558 102.805 43.5558ZM143.983 43.5558C146.714 43.5558 149.124 44.1104 151.215 45.2197C153.348 46.2864 155.012 47.6304 156.207 49.2518V44.1318H163.567V79.9718C163.567 83.2144 162.884 86.0944 161.519 88.6118C160.154 91.1718 158.17 93.1771 155.567 94.6278C153.007 96.0784 149.935 96.8038 146.351 96.8038C141.572 96.8038 137.604 95.6731 134.447 93.4118C131.29 91.1931 129.498 88.1638 129.071 84.3238H136.303C136.858 86.1584 138.031 87.6304 139.823 88.7398C141.658 89.8918 143.834 90.4678 146.351 90.4678C149.295 90.4678 151.663 89.5718 153.455 87.7798C155.29 85.9878 156.207 83.3851 156.207 79.9718V74.0838C154.97 75.7478 153.284 77.1558 151.151 78.3078C149.06 79.4171 146.671 79.9718 143.983 79.9718C140.911 79.9718 138.095 79.2038 135.535 77.6678C133.018 76.0891 131.012 73.9131 129.519 71.1398C128.068 68.3238 127.343 65.1451 127.343 61.6038C127.343 58.0624 128.068 54.9264 129.519 52.1958C131.012 49.4651 133.018 47.3531 135.535 45.8597C138.095 44.3238 140.911 43.5558 143.983 43.5558ZM156.207 61.7318C156.207 59.2998 155.695 57.1878 154.671 55.3958C153.69 53.6038 152.388 52.2384 150.767 51.2998C149.146 50.3611 147.396 49.8918 145.519 49.8918C143.642 49.8918 141.892 50.3611 140.271 51.2998C138.65 52.1958 137.327 53.5398 136.303 55.3318C135.322 57.0811 134.831 59.1718 134.831 61.6038C134.831 64.0358 135.322 66.1691 136.303 68.0038C137.327 69.8384 138.65 71.2464 140.271 72.2278C141.935 73.1664 143.684 73.6358 145.519 73.6358C147.396 73.6358 149.146 73.1664 150.767 72.2278C152.388 71.2891 153.69 69.9238 154.671 68.1318C155.695 66.2971 156.207 64.1638 156.207 61.7318ZM173.918 61.6038C173.918 58.0624 174.643 54.9264 176.094 52.1958C177.587 49.4651 179.593 47.3531 182.11 45.8597C184.67 44.3238 187.486 43.5558 190.558 43.5558C193.331 43.5558 195.742 44.1104 197.79 45.2197C199.881 46.2864 201.545 47.6304 202.782 49.2518V44.1318H210.142V79.3958H202.782V74.1478C201.545 75.8118 199.859 77.1984 197.726 78.3078C195.593 79.4171 193.161 79.9718 190.43 79.9718C187.401 79.9718 184.627 79.2038 182.11 77.6678C179.593 76.0891 177.587 73.9131 176.094 71.1398C174.643 68.3238 173.918 65.1451 173.918 61.6038ZM202.782 61.7318C202.782 59.2998 202.27 57.1878 201.246 55.3958C200.265 53.6038 198.963 52.2384 197.342 51.2998C195.721 50.3611 193.971 49.8918 192.094 49.8918C190.217 49.8918 188.467 50.3611 186.846 51.2998C185.225 52.1958 183.902 53.5398 182.878 55.3318C181.897 57.0811 181.406 59.1718 181.406 61.6038C181.406 64.0358 181.897 66.1691 182.878 68.0038C183.902 69.8384 185.225 71.2464 186.846 72.2278C188.51 73.1664 190.259 73.6358 192.094 73.6358C193.971 73.6358 195.721 73.1664 197.342 72.2278C198.963 71.2891 200.265 69.9238 201.246 68.1318C202.27 66.2971 202.782 64.1638 202.782 61.7318Z" fill="#F97316"/>
</svg>
